<?xml version="1.0" standalone="no"?>
<!DOCTYPE svg PUBLIC "-//W3C//DTD SVG 20010904//EN"
 "http://www.w3.org/TR/2001/REC-SVG-20010904/DTD/svg10.dtd">
<svg version="1.0" xmlns="http://www.w3.org/2000/svg"
 width="192.000000pt" height="192.000000pt" viewBox="0 0 192.000000 192.000000"
 preserveAspectRatio="xMidYMid meet">
<metadata>
Created by potrace 1.11, written by Peter Selinger 2001-2013
</metadata>
<g transform="translate(0.000000,192.000000) scale(0.100000,-0.100000)"
fill="#000000" stroke="none">
<path d="M0 960 l0 -960 960 0 960 0 0 960 0 960 -960 0 -960 0 0 -960z m1100
789 c58 -33 215 -124 350 -201 135 -77 251 -147 258 -156 9 -12 12 -115 12
-435 l0 -419 -27 -25 c-44 -39 -695 -412 -721 -413 -13 0 -185 92 -381 205
-264 151 -361 212 -369 230 -9 18 -12 144 -12 428 0 371 2 404 18 425 28 36
701 420 737 421 20 1 66 -20 135 -60z"/>
<path d="M643 1507 l-313 -181 0 -367 c0 -281 3 -369 13 -377 6 -5 150 -89
318 -185 l307 -176 318 183 319 184 2 368 3 369 -319 183 c-175 100 -322 182
-327 181 -5 0 -150 -82 -321 -182z m628 -36 l294 -169 3 -344 2 -344 -300
-172 -301 -173 -299 172 -300 172 2 345 3 346 290 167 c160 92 295 168 301
168 7 1 144 -75 305 -168z"/>
<path d="M865 1499 c16 -31 13 -49 -23 -146 -3 -9 8 -13 35 -13 l39 0 23 66
c13 36 27 62 31 57 4 -4 20 -41 35 -81 16 -40 32 -75 35 -77 11 -7 60 19 60
31 0 7 -9 31 -20 55 -21 47 -26 104 -10 114 29 18 0 25 -105 25 l-116 0 16
-31z"/>
<path d="M1113 1311 c-103 -38 -158 -104 -157 -187 1 -81 81 -164 156 -164 50
0 50 22 0 54 -144 91 -73 250 118 264 46 3 76 0 103 -11 35 -15 36 -18 26 -41
-25 -55 52 -103 95 -60 38 37 5 89 -84 135 -63 32 -185 37 -257 10z"/>
<path d="M477 1263 c11 -80 9 -270 -5 -315 l-10 -38 60 0 c58 0 60 1 54 23 -4
12 -10 60 -13 106 l-6 84 49 -7 c27 -4 61 -9 77 -12 25 -5 27 -3 27 26 l0 32
-75 -7 -75 -7 0 63 0 62 133 -6 c72 -4 162 -13 200 -20 l67 -14 0 44 0 43
-246 0 -245 0 8 -57z"/>
<path d="M690 983 c-61 -154 -113 -270 -129 -287 -14 -16 -48 -38 -75 -51
l-49 -21 109 -62 c60 -33 109 -60 111 -59 1 2 -2 20 -7 42 -13 57 3 148 42
246 l33 84 241 3 241 2 32 -77 c42 -103 58 -197 44 -257 -6 -25 -8 -46 -6 -46
4 0 111 61 181 103 l34 20 -53 26 c-78 38 -66 16 -221 401 -39 96 -74 179 -78
183 -4 5 -19 -2 -34 -15 l-27 -23 51 -123 c27 -68 50 -126 50 -128 0 -2 -96
-4 -214 -4 l-215 0 58 143 c33 78 57 145 54 150 -2 4 -19 7 -37 7 l-32 0 -104
-257z"/>
<path d="M1416 1044 c-21 -25 -44 -39 -87 -52 -58 -17 -66 -25 -51 -50 15 -23
111 17 166 70 47 45 53 69 18 67 -9 0 -30 -16 -46 -35z"/>
<path d="M917 846 c-70 -25 -107 -78 -107 -151 0 -174 239 -220 306 -59 52
124 -73 255 -199 210z m26 -43 c-7 -2 -19 -2 -25 0 -7 3 -2 5 12 5 14 0 19 -2
13 -5z m74 1 c-3 -3 -12 -4 -19 -1 -8 3 -5 6 6 6 11 1 17 -2 13 -5z m-34 -51
c-7 -2 -19 -2 -25 0 -7 3 -2 5 12 5 14 0 19 -2 13 -5z m-24 -44 c6 9 10 10 16
2 5 -9 10 -9 20 -1 10 8 14 7 18 -2 4 -10 8 -10 16 2 9 12 11 9 11 -15 0 -24
-2 -27 -11 -15 -8 12 -12 12 -16 2 -4 -9 -8 -10 -18 -2 -10 8 -15 8 -20 -1 -6
-8 -10 -7 -16 2 -8 12 -11 11 -19 -1 -7 -11 -10 -12 -10 -2 0 9 -7 11 -20 7
-14 -5 -20 -2 -20 10 0 12 6 15 20 10 13 -4 20 -2 20 7 0 10 3 9 10 -2 8 -12
11 -13 19 -1z m-22 -75 c-3 -3 -12 -4 -19 -1 -8 3 -5 6 6 6 11 1 17 -2 13 -5z
m50 0 c-3 -3 -12 -4 -19 -1 -8 3 -5 6 6 6 11 1 17 -2 13 -5z m40 0 c-3 -3 -12
-4 -19 -1 -8 3 -5 6 6 6 11 1 17 -2 13 -5z m-84 -51 c-7 -2 -19 -2 -25 0 -7 3
-2 5 12 5 14 0 19 -2 13 -5z m74 1 c-3 -3 -12 -4 -19 -1 -8 3 -5 6 6 6 11 1
17 -2 13 -5z"/>
<path d="M876 494 c-29 -29 -14 -59 33 -66 l23 -3 -27 -27 c-15 -16 -25 -28
-22 -28 47 0 88 95 55 128 -17 17 -44 15 -62 -4z m49 -24 c0 -13 -6 -25 -12
-27 -16 -6 -27 21 -19 43 9 23 31 11 31 -16z"/>
<path d="M980 500 c0 -5 7 -10 16 -10 11 0 15 -6 11 -19 -3 -12 1 -22 9 -25
23 -9 16 -43 -12 -65 -15 -12 -22 -21 -17 -21 6 0 22 9 37 21 29 22 35 66 11
75 -12 5 -12 9 2 30 15 24 15 24 -21 24 -20 0 -36 -4 -36 -10z"/>
<path d="M795 455 c0 -33 4 -45 15 -45 12 0 14 10 12 45 -2 25 -9 45 -16 45
-6 0 -11 -18 -11 -45z"/>
<path d="M1108 493 c29 -6 28 -21 -5 -55 l-27 -28 37 0 c20 0 37 4 37 10 0 5
-7 7 -15 4 -19 -8 -19 3 0 23 24 24 14 48 -20 50 -20 1 -23 0 -7 -4z"/>
</g>
</svg>
